<?xml version="1.0" standalone="no"?>
<!DOCTYPE svg PUBLIC "-//W3C//DTD SVG 20010904//EN"
 "http://www.w3.org/TR/2001/REC-SVG-20010904/DTD/svg10.dtd">
<svg version="1.0" xmlns="http://www.w3.org/2000/svg"
 width="612.000000pt" height="502.000000pt" viewBox="0 0 612.000000 502.000000"
 preserveAspectRatio="xMidYMid meet">

<g transform="translate(0.000000,502.000000) scale(0.100000,-0.100000)"
fill="#000000" stroke="none">
<path d="M4022 3183 c-44 -54 -128 -154 -186 -223 -58 -69 -106 -129 -106
-133 0 -5 10 -5 23 -1 41 13 181 43 185 39 2 -2 -8 -41 -23 -87 -146 -453
-557 -794 -1096 -909 -139 -30 -409 -32 -544 -6 -128 26 -256 69 -360 122
l-90 46 49 -43 c101 -87 247 -165 391 -207 128 -37 205 -46 390 -46 146 1 201
5 293 23 585 117 1037 498 1160 976 l26 104 88 -44 c48 -24 88 -41 88 -38 0
17 -194 524 -201 524 -4 0 -43 -44 -87 -97z"/>
<path d="M3378 2673 l-3 -512 29 19 c17 10 56 40 87 67 l58 48 0 360 1 360
-85 85 -85 84 -2 -511z"/>
<path d="M2930 2386 c0 -490 -13 -445 109 -400 l71 26 0 312 0 311 -83 82
c-45 46 -85 86 -89 89 -4 4 -7 -185 -8 -420z"/>
<path d="M2490 2173 l0 -283 63 0 c116 0 107 -16 107 203 l0 190 -85 86 -85
86 0 -282z"/>
</g>
</svg>
